# Tiled2Unity generated file. Do not modify by hand.
# Wavefront file for 'userRoom_mesh_0009.obj'

# Vertices (Count = 16)
v -64 -192 0
v -96 -192 0
v -96 -160 0
v -64 -160 0
v -96 -192 0
v -128 -192 0
v -128 -160 0
v -96 -160 0
v -64 -224 0
v -96 -224 0
v -96 -192 0
v -64 -192 0
v -96 -224 0
v -128 -224 0
v -128 -192 0
v -96 -192 0

# Texture cooridinates (Count = 9)
vt 0.625 0.3533835
vt 0.75 0.3533835
vt 0.75 0.3609022
vt 0.625 0.3609022
vt 0.875 0.3533835
vt 0.875 0.3609022
vt 0.625 0.3458647
vt 0.75 0.3458647
vt 0.875 0.3458647

# Normal
vn 0 0 -1

# Mesh description
g userRoom_mesh_0009

# Faces
f 1/1/1 2/2/1 3/3/1 4/4/1
f 5/2/1 6/5/1 7/6/1 8/3/1
f 9/7/1 10/8/1 11/2/1 12/1/1
f 13/8/1 14/9/1 15/5/1 16/2/1

