# Tiled2Unity generated file. Do not modify by hand.
# Wavefront file for 'userRoom_mesh_0009.obj'

# Vertices (Count = 36)
v -256 -192 0
v -288 -192 0
v -288 -160 0
v -256 -160 0
v -288 -192 0
v -320 -192 0
v -320 -160 0
v -288 -160 0
v -320 -192 0
v -352 -192 0
v -352 -160 0
v -320 -160 0
v -256 -224 0
v -288 -224 0
v -288 -192 0
v -256 -192 0
v -288 -224 0
v -320 -224 0
v -320 -192 0
v -288 -192 0
v -320 -224 0
v -352 -224 0
v -352 -192 0
v -320 -192 0
v -448 -224 0
v -480 -224 0
v -480 -192 0
v -448 -192 0
v -448 -256 0
v -480 -256 0
v -480 -224 0
v -448 -224 0
v -352 -320 0
v -384 -320 0
v -384 -288 0
v -352 -288 0

# Texture cooridinates (Count = 25)
vt 0 0.8327526
vt 0.1264822 0.8327526
vt 0.1264822 0.8885018
vt 0 0.8885018
vt 0.2529644 0.8327526
vt 0.2529644 0.8885018
vt 0 0.6097561
vt 0.1264822 0.6097561
vt 0.1264822 0.6655052
vt 0 0.6655052
vt 0 0.7770035
vt 0.1264822 0.7770035
vt 0.2529644 0.7770035
vt 0 0.5540069
vt 0.1264822 0.5540069
vt 0.2529644 0.4982578
vt 0.3794466 0.4982578
vt 0.3794466 0.5540069
vt 0.2529644 0.5540069
vt 0.2529644 0.4425087
vt 0.3794466 0.4425087
vt 0.3794466 0.7212543
vt 0.5059289 0.7212543
vt 0.5059289 0.7770035
vt 0.3794466 0.7770035

# Normal
vn 0 0 -1

# Mesh description
g userRoom_mesh_0009

# Faces
f 1/1/1 2/2/1 3/3/1 4/4/1
f 5/2/1 6/5/1 7/6/1 8/3/1
f 9/7/1 10/8/1 11/9/1 12/10/1
f 13/11/1 14/12/1 15/2/1 16/1/1
f 17/12/1 18/13/1 19/5/1 20/2/1
f 21/14/1 22/15/1 23/8/1 24/7/1
f 25/16/1 26/17/1 27/18/1 28/19/1
f 29/20/1 30/21/1 31/17/1 32/16/1
f 33/22/1 34/23/1 35/24/1 36/25/1

