# Tiled2Unity generated file. Do not modify by hand.
# Wavefront file for 'userRoom_mesh_0007.obj'

# Vertices (Count = 20)
v -448 -96 0
v -480 -96 0
v -480 -64 0
v -448 -64 0
v -160 -288 0
v -192 -288 0
v -192 -256 0
v -160 -256 0
v -192 -288 0
v -224 -288 0
v -224 -256 0
v -192 -256 0
v -160 -320 0
v -192 -320 0
v -192 -288 0
v -160 -288 0
v -192 -320 0
v -224 -320 0
v -224 -288 0
v -192 -288 0

# Texture cooridinates (Count = 9)
vt 0.625 0.0971787
vt 0.75 0.0971787
vt 0.75 0.1974922
vt 0.625 0.1974922
vt 0.75 0.2978057
vt 0.625 0.2978057
vt 0.875 0.1974922
vt 0.875 0.2978057
vt 0.875 0.0971787

# Normal
vn 0 0 -1

# Mesh description
g userRoom_mesh_0007

# Faces
f 1/1/1 2/2/1 3/3/1 4/4/1
f 5/4/1 6/3/1 7/5/1 8/6/1
f 9/3/1 10/7/1 11/8/1 12/5/1
f 13/1/1 14/2/1 15/3/1 16/4/1
f 17/2/1 18/9/1 19/7/1 20/3/1

