# Tiled2Unity generated file. Do not modify by hand.
# Wavefront file for 'userRoom_mesh_0005.obj'

# Vertices (Count = 48)
v -32 -64 0
v -64 -64 0
v -64 -32 0
v -32 -32 0
v -64 -64 0
v -96 -64 0
v -96 -32 0
v -64 -32 0
v -96 -64 0
v -128 -64 0
v -128 -32 0
v -96 -32 0
v -32 -96 0
v -64 -96 0
v -64 -64 0
v -32 -64 0
v -64 -96 0
v -96 -96 0
v -96 -64 0
v -64 -64 0
v -96 -96 0
v -128 -96 0
v -128 -64 0
v -96 -64 0
v -448 -96 0
v -480 -96 0
v -480 -64 0
v -448 -64 0
v -448 -128 0
v -480 -128 0
v -480 -96 0
v -448 -96 0
v -160 -288 0
v -192 -288 0
v -192 -256 0
v -160 -256 0
v -192 -288 0
v -224 -288 0
v -224 -256 0
v -192 -256 0
v -160 -320 0
v -192 -320 0
v -192 -288 0
v -160 -288 0
v -192 -320 0
v -224 -320 0
v -224 -288 0
v -192 -288 0

# Texture cooridinates (Count = 21)
vt 0 0.1974922
vt 0.125 0.1974922
vt 0.125 0.2978057
vt 0 0.2978057
vt 0.25 0.1974922
vt 0.25 0.2978057
vt 0.375 0.1974922
vt 0.375 0.2978057
vt 0 0.0971787
vt 0.125 0.0971787
vt 0.25 0.0971787
vt 0.375 0.0971787
vt 0.625 0.0971787
vt 0.75 0.0971787
vt 0.75 0.1974922
vt 0.625 0.1974922
vt 0.75 0.2978057
vt 0.625 0.2978057
vt 0.875 0.1974922
vt 0.875 0.2978057
vt 0.875 0.0971787

# Normal
vn 0 0 -1

# Mesh description
g userRoom_mesh_0005

# Faces
f 1/1/1 2/2/1 3/3/1 4/4/1
f 5/2/1 6/5/1 7/6/1 8/3/1
f 9/5/1 10/7/1 11/8/1 12/6/1
f 13/9/1 14/10/1 15/2/1 16/1/1
f 17/10/1 18/11/1 19/5/1 20/2/1
f 21/11/1 22/12/1 23/7/1 24/5/1
f 25/13/1 26/14/1 27/15/1 28/16/1
f 29/13/1 30/14/1 31/15/1 32/16/1
f 33/16/1 34/15/1 35/17/1 36/18/1
f 37/15/1 38/19/1 39/20/1 40/17/1
f 41/13/1 42/14/1 43/15/1 44/16/1
f 45/14/1 46/21/1 47/19/1 48/15/1

