# Tiled2Unity generated file. Do not modify by hand.
# Wavefront file for 'userRoom_mesh_0008.obj'

# Vertices (Count = 36)
v -32 -192 0
v -64 -192 0
v -64 -160 0
v -32 -160 0
v -128 -192 0
v -160 -192 0
v -160 -160 0
v -128 -160 0
v -352 -192 0
v -384 -192 0
v -384 -160 0
v -352 -160 0
v -384 -192 0
v -416 -192 0
v -416 -160 0
v -384 -160 0
v -32 -224 0
v -64 -224 0
v -64 -192 0
v -32 -192 0
v -128 -224 0
v -160 -224 0
v -160 -192 0
v -128 -192 0
v -352 -224 0
v -384 -224 0
v -384 -192 0
v -352 -192 0
v -384 -224 0
v -416 -224 0
v -416 -192 0
v -384 -192 0
v -384 -320 0
v -416 -320 0
v -416 -288 0
v -384 -288 0

# Texture cooridinates (Count = 11)
vt 0.4 0.496063
vt 0.6 0.496063
vt 0.6 0.7480315
vt 0.4 0.7480315
vt 0 0.7480315
vt 0.2 0.7480315
vt 0.2 1
vt 0 1
vt 0.4 1
vt 0 0.496063
vt 0.2 0.496063

# Normal
vn 0 0 -1

# Mesh description
g userRoom_mesh_0008

# Faces
f 1/1/1 2/2/1 3/3/1 4/4/1
f 5/1/1 6/2/1 7/3/1 8/4/1
f 9/5/1 10/6/1 11/7/1 12/8/1
f 13/6/1 14/4/1 15/9/1 16/7/1
f 17/1/1 18/2/1 19/3/1 20/4/1
f 21/1/1 22/2/1 23/3/1 24/4/1
f 25/10/1 26/11/1 27/6/1 28/5/1
f 29/11/1 30/1/1 31/4/1 32/6/1
f 33/1/1 34/2/1 35/3/1 36/4/1

