# Tiled2Unity generated file. Do not modify by hand.
# Wavefront file for 'userRoom_mesh_0005.obj'

# Vertices (Count = 24)
v -32 -64 0
v -64 -64 0
v -64 -32 0
v -32 -32 0
v -64 -64 0
v -96 -64 0
v -96 -32 0
v -64 -32 0
v -96 -64 0
v -128 -64 0
v -128 -32 0
v -96 -32 0
v -32 -96 0
v -64 -96 0
v -64 -64 0
v -32 -64 0
v -64 -96 0
v -96 -96 0
v -96 -64 0
v -64 -64 0
v -96 -96 0
v -128 -96 0
v -128 -64 0
v -96 -64 0

# Texture cooridinates (Count = 12)
vt 0 0.1974922
vt 0.125 0.1974922
vt 0.125 0.2978057
vt 0 0.2978057
vt 0.25 0.1974922
vt 0.25 0.2978057
vt 0.375 0.1974922
vt 0.375 0.2978057
vt 0 0.0971787
vt 0.125 0.0971787
vt 0.25 0.0971787
vt 0.375 0.0971787

# Normal
vn 0 0 -1

# Mesh description
g userRoom_mesh_0005

# Faces
f 1/1/1 2/2/1 3/3/1 4/4/1
f 5/2/1 6/5/1 7/6/1 8/3/1
f 9/5/1 10/7/1 11/8/1 12/6/1
f 13/9/1 14/10/1 15/2/1 16/1/1
f 17/10/1 18/11/1 19/5/1 20/2/1
f 21/11/1 22/12/1 23/7/1 24/5/1

