# Tiled2Unity generated file. Do not modify by hand.
# Wavefront file for 'myMap_mesh_0004.obj'

# Vertices (Count = 140)
v -640 -256 0
v -672 -256 0
v -672 -224 0
v -640 -224 0
v -672 -256 0
v -704 -256 0
v -704 -224 0
v -672 -224 0
v -704 -256 0
v -736 -256 0
v -736 -224 0
v -704 -224 0
v -736 -256 0
v -768 -256 0
v -768 -224 0
v -736 -224 0
v -768 -256 0
v -800 -256 0
v -800 -224 0
v -768 -224 0
v -800 -256 0
v -832 -256 0
v -832 -224 0
v -800 -224 0
v -832 -256 0
v -864 -256 0
v -864 -224 0
v -832 -224 0
v -864 -256 0
v -896 -256 0
v -896 -224 0
v -864 -224 0
v -896 -256 0
v -928 -256 0
v -928 -224 0
v -896 -224 0
v -928 -256 0
v -960 -256 0
v -960 -224 0
v -928 -224 0
v -960 -256 0
v -992 -256 0
v -992 -224 0
v -960 -224 0
v -992 -256 0
v -1024 -256 0
v -1024 -224 0
v -992 -224 0
v -640 -288 0
v -672 -288 0
v -672 -256 0
v -640 -256 0
v -992 -288 0
v -1024 -288 0
v -1024 -256 0
v -992 -256 0
v -640 -320 0
v -672 -320 0
v -672 -288 0
v -640 -288 0
v -992 -320 0
v -1024 -320 0
v -1024 -288 0
v -992 -288 0
v -640 -352 0
v -672 -352 0
v -672 -320 0
v -640 -320 0
v -992 -352 0
v -1024 -352 0
v -1024 -320 0
v -992 -320 0
v -640 -384 0
v -672 -384 0
v -672 -352 0
v -640 -352 0
v -992 -384 0
v -1024 -384 0
v -1024 -352 0
v -992 -352 0
v -640 -416 0
v -672 -416 0
v -672 -384 0
v -640 -384 0
v -992 -416 0
v -1024 -416 0
v -1024 -384 0
v -992 -384 0
v -640 -448 0
v -672 -448 0
v -672 -416 0
v -640 -416 0
v -992 -448 0
v -1024 -448 0
v -1024 -416 0
v -992 -416 0
v -640 -480 0
v -672 -480 0
v -672 -448 0
v -640 -448 0
v -672 -480 0
v -704 -480 0
v -704 -448 0
v -672 -448 0
v -704 -480 0
v -736 -480 0
v -736 -448 0
v -704 -448 0
v -736 -480 0
v -768 -480 0
v -768 -448 0
v -736 -448 0
v -768 -480 0
v -800 -480 0
v -800 -448 0
v -768 -448 0
v -800 -480 0
v -832 -480 0
v -832 -448 0
v -800 -448 0
v -864 -480 0
v -896 -480 0
v -896 -448 0
v -864 -448 0
v -896 -480 0
v -928 -480 0
v -928 -448 0
v -896 -448 0
v -928 -480 0
v -960 -480 0
v -960 -448 0
v -928 -448 0
v -960 -480 0
v -992 -480 0
v -992 -448 0
v -960 -448 0
v -992 -480 0
v -1024 -480 0
v -1024 -448 0
v -992 -448 0

# Texture cooridinates (Count = 18)
vt 0.25 0.7969925
vt 0.375 0.7969925
vt 0.375 0.8045113
vt 0.25 0.8045113
vt 0 0.7894737
vt 0.125 0.7894737
vt 0.125 0.7969925
vt 0 0.7969925
vt 0.5 0.7969925
vt 0.5 0.8045113
vt 0.125 0.8045113
vt 0 0.8045113
vt 0.25 0.7894737
vt 0.375 0.7894737
vt 0.625 0.7969925
vt 0.625 0.8045113
vt 0.5 0.7894737
vt 0.625 0.7894737

# Normal
vn 0 0 -1

# Mesh description
g myMap_mesh_0004

# Faces
f 1/1/1 2/2/1 3/3/1 4/4/1
f 5/5/1 6/6/1 7/7/1 8/8/1
f 9/5/1 10/6/1 11/7/1 12/8/1
f 13/5/1 14/6/1 15/7/1 16/8/1
f 17/5/1 18/6/1 19/7/1 20/8/1
f 21/5/1 22/6/1 23/7/1 24/8/1
f 25/5/1 26/6/1 27/7/1 28/8/1
f 29/5/1 30/6/1 31/7/1 32/8/1
f 33/5/1 34/6/1 35/7/1 36/8/1
f 37/5/1 38/6/1 39/7/1 40/8/1
f 41/5/1 42/6/1 43/7/1 44/8/1
f 45/2/1 46/9/1 47/10/1 48/3/1
f 49/8/1 50/7/1 51/11/1 52/12/1
f 53/8/1 54/7/1 55/11/1 56/12/1
f 57/8/1 58/7/1 59/11/1 60/12/1
f 61/8/1 62/7/1 63/11/1 64/12/1
f 65/8/1 66/7/1 67/11/1 68/12/1
f 69/8/1 70/7/1 71/11/1 72/12/1
f 73/8/1 74/7/1 75/11/1 76/12/1
f 77/8/1 78/7/1 79/11/1 80/12/1
f 81/8/1 82/7/1 83/11/1 84/12/1
f 85/8/1 86/7/1 87/11/1 88/12/1
f 89/8/1 90/7/1 91/11/1 92/12/1
f 93/8/1 94/7/1 95/11/1 96/12/1
f 97/13/1 98/14/1 99/2/1 100/1/1
f 101/5/1 102/6/1 103/7/1 104/8/1
f 105/5/1 106/6/1 107/7/1 108/8/1
f 109/5/1 110/6/1 111/7/1 112/8/1
f 113/5/1 114/6/1 115/7/1 116/8/1
f 117/9/1 118/15/1 119/16/1 120/10/1
f 121/17/1 122/18/1 123/15/1 124/9/1
f 125/5/1 126/6/1 127/7/1 128/8/1
f 129/5/1 130/6/1 131/7/1 132/8/1
f 133/5/1 134/6/1 135/7/1 136/8/1
f 137/14/1 138/17/1 139/9/1 140/2/1

