# Tiled2Unity generated file. Do not modify by hand.
# Wavefront file for 'myMap_mesh_0005.obj'

# Vertices (Count = 20)
v -672 -256 0
v -704 -256 0
v -704 -224 0
v -672 -224 0
v -704 -256 0
v -736 -256 0
v -736 -224 0
v -704 -224 0
v -672 -288 0
v -704 -288 0
v -704 -256 0
v -672 -256 0
v -704 -288 0
v -736 -288 0
v -736 -256 0
v -704 -256 0
v -736 -288 0
v -768 -288 0
v -768 -256 0
v -736 -256 0

# Texture cooridinates (Count = 13)
vt 0.75 0.7518797
vt 0.875 0.7518797
vt 0.875 0.7593985
vt 0.75 0.7593985
vt 1 0.7518797
vt 1 0.7593985
vt 0.75 0.7443609
vt 0.875 0.7443609
vt 1 0.7443609
vt 0 0.1804512
vt 0.125 0.1804512
vt 0.125 0.1879699
vt 0 0.1879699

# Normal
vn 0 0 -1

# Mesh description
g myMap_mesh_0005

# Faces
f 1/1/1 2/2/1 3/3/1 4/4/1
f 5/2/1 6/5/1 7/6/1 8/3/1
f 9/7/1 10/8/1 11/2/1 12/1/1
f 13/8/1 14/9/1 15/5/1 16/2/1
f 17/10/1 18/11/1 19/12/1 20/13/1

