# Tiled2Unity generated file. Do not modify by hand.
# Wavefront file for 'myMap_mesh_0007.obj'

# Vertices (Count = 24)
v -928 -320 0
v -960 -320 0
v -960 -288 0
v -928 -288 0
v -960 -320 0
v -992 -320 0
v -992 -288 0
v -960 -288 0
v -768 -384 0
v -800 -384 0
v -800 -352 0
v -768 -352 0
v -960 -416 0
v -992 -416 0
v -992 -384 0
v -960 -384 0
v -928 -448 0
v -960 -448 0
v -960 -416 0
v -928 -416 0
v -960 -448 0
v -992 -448 0
v -992 -416 0
v -960 -416 0

# Texture cooridinates (Count = 20)
vt 0.25 0.1804512
vt 0.375 0.1804512
vt 0.375 0.1879699
vt 0.25 0.1879699
vt 0.5 0.1804512
vt 0.5 0.1879699
vt 0 0.1729323
vt 0.125 0.1729323
vt 0.125 0.1804512
vt 0 0.1804512
vt 0.875 0.1729323
vt 1 0.1729323
vt 1 0.1804512
vt 0.875 0.1804512
vt 0.5 0.3233083
vt 0.625 0.3233083
vt 0.625 0.3308271
vt 0.5 0.3308271
vt 0.5 0.3157895
vt 0.625 0.3157895

# Normal
vn 0 0 -1

# Mesh description
g myMap_mesh_0007

# Faces
f 1/1/1 2/2/1 3/3/1 4/4/1
f 5/2/1 6/5/1 7/6/1 8/3/1
f 9/7/1 10/8/1 11/9/1 12/10/1
f 13/11/1 14/12/1 15/13/1 16/14/1
f 17/15/1 18/16/1 19/17/1 20/18/1
f 21/19/1 22/20/1 23/16/1 24/15/1

