# Tiled2Unity generated file. Do not modify by hand.
# Wavefront file for 'userMap_mesh_0014.obj'

# Vertices (Count = 436)
v -512 -64 0
v -544 -64 0
v -544 -32 0
v -512 -32 0
v -544 -64 0
v -576 -64 0
v -576 -32 0
v -544 -32 0
v -800 -64 0
v -832 -64 0
v -832 -32 0
v -800 -32 0
v -832 -64 0
v -864 -64 0
v -864 -32 0
v -832 -32 0
v -1152 -64 0
v -1184 -64 0
v -1184 -32 0
v -1152 -32 0
v -1184 -64 0
v -1216 -64 0
v -1216 -32 0
v -1184 -32 0
v -96 -96 0
v -128 -96 0
v -128 -64 0
v -96 -64 0
v -128 -96 0
v -160 -96 0
v -160 -64 0
v -128 -64 0
v -512 -96 0
v -544 -96 0
v -544 -64 0
v -512 -64 0
v -544 -96 0
v -576 -96 0
v -576 -64 0
v -544 -64 0
v -800 -96 0
v -832 -96 0
v -832 -64 0
v -800 -64 0
v -832 -96 0
v -864 -96 0
v -864 -64 0
v -832 -64 0
v -1152 -96 0
v -1184 -96 0
v -1184 -64 0
v -1152 -64 0
v -1184 -96 0
v -1216 -96 0
v -1216 -64 0
v -1184 -64 0
v -96 -128 0
v -128 -128 0
v -128 -96 0
v -96 -96 0
v -128 -128 0
v -160 -128 0
v -160 -96 0
v -128 -96 0
v -512 -128 0
v -544 -128 0
v -544 -96 0
v -512 -96 0
v -544 -128 0
v -576 -128 0
v -576 -96 0
v -544 -96 0
v -800 -128 0
v -832 -128 0
v -832 -96 0
v -800 -96 0
v -832 -128 0
v -864 -128 0
v -864 -96 0
v -832 -96 0
v -1024 -128 0
v -1056 -128 0
v -1056 -96 0
v -1024 -96 0
v -1056 -128 0
v -1088 -128 0
v -1088 -96 0
v -1056 -96 0
v -1152 -128 0
v -1184 -128 0
v -1184 -96 0
v -1152 -96 0
v -1184 -128 0
v -1216 -128 0
v -1216 -96 0
v -1184 -96 0
v -192 -160 0
v -224 -160 0
v -224 -128 0
v -192 -128 0
v -224 -160 0
v -256 -160 0
v -256 -128 0
v -224 -128 0
v -1024 -160 0
v -1056 -160 0
v -1056 -128 0
v -1024 -128 0
v -1056 -160 0
v -1088 -160 0
v -1088 -128 0
v -1056 -128 0
v -192 -192 0
v -224 -192 0
v -224 -160 0
v -192 -160 0
v -224 -192 0
v -256 -192 0
v -256 -160 0
v -224 -160 0
v -288 -192 0
v -320 -192 0
v -320 -160 0
v -288 -160 0
v -320 -192 0
v -352 -192 0
v -352 -160 0
v -320 -160 0
v -1024 -192 0
v -1056 -192 0
v -1056 -160 0
v -1024 -160 0
v -1056 -192 0
v -1088 -192 0
v -1088 -160 0
v -1056 -160 0
v -288 -224 0
v -320 -224 0
v -320 -192 0
v -288 -192 0
v -320 -224 0
v -352 -224 0
v -352 -192 0
v -320 -192 0
v -288 -256 0
v -320 -256 0
v -320 -224 0
v -288 -224 0
v -320 -256 0
v -352 -256 0
v -352 -224 0
v -320 -224 0
v -32 -288 0
v -64 -288 0
v -64 -256 0
v -32 -256 0
v -192 -288 0
v -224 -288 0
v -224 -256 0
v -192 -256 0
v -224 -288 0
v -256 -288 0
v -256 -256 0
v -224 -256 0
v -384 -288 0
v -416 -288 0
v -416 -256 0
v -384 -256 0
v -416 -288 0
v -448 -288 0
v -448 -256 0
v -416 -256 0
v -192 -320 0
v -224 -320 0
v -224 -288 0
v -192 -288 0
v -224 -320 0
v -256 -320 0
v -256 -288 0
v -224 -288 0
v -384 -320 0
v -416 -320 0
v -416 -288 0
v -384 -288 0
v -416 -320 0
v -448 -320 0
v -448 -288 0
v -416 -288 0
v -384 -352 0
v -416 -352 0
v -416 -320 0
v -384 -320 0
v -416 -352 0
v -448 -352 0
v -448 -320 0
v -416 -320 0
v -96 -416 0
v -128 -416 0
v -128 -384 0
v -96 -384 0
v -128 -416 0
v -160 -416 0
v -160 -384 0
v -128 -384 0
v -256 -416 0
v -288 -416 0
v -288 -384 0
v -256 -384 0
v -288 -416 0
v -320 -416 0
v -320 -384 0
v -288 -384 0
v -96 -448 0
v -128 -448 0
v -128 -416 0
v -96 -416 0
v -128 -448 0
v -160 -448 0
v -160 -416 0
v -128 -416 0
v -256 -448 0
v -288 -448 0
v -288 -416 0
v -256 -416 0
v -288 -448 0
v -320 -448 0
v -320 -416 0
v -288 -416 0
v -96 -480 0
v -128 -480 0
v -128 -448 0
v -96 -448 0
v -128 -480 0
v -160 -480 0
v -160 -448 0
v -128 -448 0
v -256 -480 0
v -288 -480 0
v -288 -448 0
v -256 -448 0
v -288 -480 0
v -320 -480 0
v -320 -448 0
v -288 -448 0
v -1184 -576 0
v -1216 -576 0
v -1216 -544 0
v -1184 -544 0
v -1216 -576 0
v -1248 -576 0
v -1248 -544 0
v -1216 -544 0
v -32 -608 0
v -64 -608 0
v -64 -576 0
v -32 -576 0
v -64 -608 0
v -96 -608 0
v -96 -576 0
v -64 -576 0
v -1184 -608 0
v -1216 -608 0
v -1216 -576 0
v -1184 -576 0
v -1216 -608 0
v -1248 -608 0
v -1248 -576 0
v -1216 -576 0
v -32 -640 0
v -64 -640 0
v -64 -608 0
v -32 -608 0
v -64 -640 0
v -96 -640 0
v -96 -608 0
v -64 -608 0
v -1184 -640 0
v -1216 -640 0
v -1216 -608 0
v -1184 -608 0
v -1216 -640 0
v -1248 -640 0
v -1248 -608 0
v -1216 -608 0
v -32 -672 0
v -64 -672 0
v -64 -640 0
v -32 -640 0
v -64 -672 0
v -96 -672 0
v -96 -640 0
v -64 -640 0
v -288 -672 0
v -320 -672 0
v -320 -640 0
v -288 -640 0
v -320 -672 0
v -352 -672 0
v -352 -640 0
v -320 -640 0
v -512 -672 0
v -544 -672 0
v -544 -640 0
v -512 -640 0
v -544 -672 0
v -576 -672 0
v -576 -640 0
v -544 -640 0
v -288 -704 0
v -320 -704 0
v -320 -672 0
v -288 -672 0
v -320 -704 0
v -352 -704 0
v -352 -672 0
v -320 -672 0
v -512 -704 0
v -544 -704 0
v -544 -672 0
v -512 -672 0
v -544 -704 0
v -576 -704 0
v -576 -672 0
v -544 -672 0
v -960 -704 0
v -992 -704 0
v -992 -672 0
v -960 -672 0
v -992 -704 0
v -1024 -704 0
v -1024 -672 0
v -992 -672 0
v -288 -736 0
v -320 -736 0
v -320 -704 0
v -288 -704 0
v -320 -736 0
v -352 -736 0
v -352 -704 0
v -320 -704 0
v -512 -736 0
v -544 -736 0
v -544 -704 0
v -512 -704 0
v -544 -736 0
v -576 -736 0
v -576 -704 0
v -544 -704 0
v -960 -736 0
v -992 -736 0
v -992 -704 0
v -960 -704 0
v -992 -736 0
v -1024 -736 0
v -1024 -704 0
v -992 -704 0
v -960 -768 0
v -992 -768 0
v -992 -736 0
v -960 -736 0
v -992 -768 0
v -1024 -768 0
v -1024 -736 0
v -992 -736 0
v -768 -800 0
v -800 -800 0
v -800 -768 0
v -768 -768 0
v -800 -800 0
v -832 -800 0
v -832 -768 0
v -800 -768 0
v -1152 -800 0
v -1184 -800 0
v -1184 -768 0
v -1152 -768 0
v -1184 -800 0
v -1216 -800 0
v -1216 -768 0
v -1184 -768 0
v -128 -832 0
v -160 -832 0
v -160 -800 0
v -128 -800 0
v -160 -832 0
v -192 -832 0
v -192 -800 0
v -160 -800 0
v -768 -832 0
v -800 -832 0
v -800 -800 0
v -768 -800 0
v -800 -832 0
v -832 -832 0
v -832 -800 0
v -800 -800 0
v -1152 -832 0
v -1184 -832 0
v -1184 -800 0
v -1152 -800 0
v -1184 -832 0
v -1216 -832 0
v -1216 -800 0
v -1184 -800 0
v -128 -864 0
v -160 -864 0
v -160 -832 0
v -128 -832 0
v -160 -864 0
v -192 -864 0
v -192 -832 0
v -160 -832 0
v -768 -864 0
v -800 -864 0
v -800 -832 0
v -768 -832 0
v -800 -864 0
v -832 -864 0
v -832 -832 0
v -800 -832 0
v -1152 -864 0
v -1184 -864 0
v -1184 -832 0
v -1152 -832 0
v -1184 -864 0
v -1216 -864 0
v -1216 -832 0
v -1184 -832 0
v -128 -896 0
v -160 -896 0
v -160 -864 0
v -128 -864 0
v -160 -896 0
v -192 -896 0
v -192 -864 0
v -160 -864 0

# Texture cooridinates (Count = 40)
vt 0.375 0.2857143
vt 0.4375 0.2857143
vt 0.4375 0.4285714
vt 0.375 0.4285714
vt 0.5 0.2857143
vt 0.5 0.4285714
vt 0.25 0.7142857
vt 0.3125 0.7142857
vt 0.3125 0.8571429
vt 0.25 0.8571429
vt 0.375 0.7142857
vt 0.375 0.8571429
vt 0.375 0.1428571
vt 0.4375 0.1428571
vt 0.5 0.1428571
vt 0.25 0.5714285
vt 0.3125 0.5714285
vt 0.375 0.5714285
vt 0.375 0
vt 0.4375 0
vt 0.5 0
vt 0.25 0.2857143
vt 0.3125 0.2857143
vt 0.3125 0.4285714
vt 0.25 0.4285714
vt 0.25 0.1428571
vt 0.3125 0.1428571
vt 0.4375 0.8571429
vt 0.4375 1
vt 0.375 1
vt 0.5 0.8571429
vt 0.5 1
vt 0.25 0
vt 0.3125 0
vt 0.4375 0.7142857
vt 0.5 0.7142857
vt 0.4375 0.5714285
vt 0.5 0.5714285
vt 0.1875 0.5714285
vt 0.1875 0.7142857

# Normal
vn 0 0 -1

# Mesh description
g userMap_mesh_0014

# Faces
f 1/1/1 2/2/1 3/3/1 4/4/1
f 5/2/1 6/5/1 7/6/1 8/3/1
f 9/1/1 10/2/1 11/3/1 12/4/1
f 13/2/1 14/5/1 15/6/1 16/3/1
f 17/1/1 18/2/1 19/3/1 20/4/1
f 21/2/1 22/5/1 23/6/1 24/3/1
f 25/7/1 26/8/1 27/9/1 28/10/1
f 29/8/1 30/11/1 31/12/1 32/9/1
f 33/13/1 34/14/1 35/2/1 36/1/1
f 37/14/1 38/15/1 39/5/1 40/2/1
f 41/13/1 42/14/1 43/2/1 44/1/1
f 45/14/1 46/15/1 47/5/1 48/2/1
f 49/13/1 50/14/1 51/2/1 52/1/1
f 53/14/1 54/15/1 55/5/1 56/2/1
f 57/16/1 58/17/1 59/8/1 60/7/1
f 61/17/1 62/18/1 63/11/1 64/8/1
f 65/19/1 66/20/1 67/14/1 68/13/1
f 69/20/1 70/21/1 71/15/1 72/14/1
f 73/19/1 74/20/1 75/14/1 76/13/1
f 77/20/1 78/21/1 79/15/1 80/14/1
f 81/22/1 82/23/1 83/24/1 84/25/1
f 85/23/1 86/1/1 87/4/1 88/24/1
f 89/19/1 90/20/1 91/14/1 92/13/1
f 93/20/1 94/21/1 95/15/1 96/14/1
f 97/7/1 98/8/1 99/9/1 100/10/1
f 101/8/1 102/11/1 103/12/1 104/9/1
f 105/26/1 106/27/1 107/23/1 108/22/1
f 109/27/1 110/13/1 111/1/1 112/23/1
f 113/16/1 114/17/1 115/8/1 116/7/1
f 117/17/1 118/18/1 119/11/1 120/8/1
f 121/12/1 122/28/1 123/29/1 124/30/1
f 125/28/1 126/31/1 127/32/1 128/29/1
f 129/33/1 130/34/1 131/27/1 132/26/1
f 133/34/1 134/19/1 135/13/1 136/27/1
f 137/11/1 138/35/1 139/28/1 140/12/1
f 141/35/1 142/36/1 143/31/1 144/28/1
f 145/18/1 146/37/1 147/35/1 148/11/1
f 149/37/1 150/38/1 151/36/1 152/35/1
f 153/39/1 154/16/1 155/7/1 156/40/1
f 157/7/1 158/8/1 159/9/1 160/10/1
f 161/8/1 162/11/1 163/12/1 164/9/1
f 165/1/1 166/2/1 167/3/1 168/4/1
f 169/2/1 170/5/1 171/6/1 172/3/1
f 173/16/1 174/17/1 175/8/1 176/7/1
f 177/17/1 178/18/1 179/11/1 180/8/1
f 181/13/1 182/14/1 183/2/1 184/1/1
f 185/14/1 186/15/1 187/5/1 188/2/1
f 189/19/1 190/20/1 191/14/1 192/13/1
f 193/20/1 194/21/1 195/15/1 196/14/1
f 197/12/1 198/28/1 199/29/1 200/30/1
f 201/28/1 202/31/1 203/32/1 204/29/1
f 205/1/1 206/2/1 207/3/1 208/4/1
f 209/2/1 210/5/1 211/6/1 212/3/1
f 213/11/1 214/35/1 215/28/1 216/12/1
f 217/35/1 218/36/1 219/31/1 220/28/1
f 221/13/1 222/14/1 223/2/1 224/1/1
f 225/14/1 226/15/1 227/5/1 228/2/1
f 229/18/1 230/37/1 231/35/1 232/11/1
f 233/37/1 234/38/1 235/36/1 236/35/1
f 237/19/1 238/20/1 239/14/1 240/13/1
f 241/20/1 242/21/1 243/15/1 244/14/1
f 245/1/1 246/2/1 247/3/1 248/4/1
f 249/2/1 250/5/1 251/6/1 252/3/1
f 253/22/1 254/23/1 255/24/1 256/25/1
f 257/23/1 258/1/1 259/4/1 260/24/1
f 261/13/1 262/14/1 263/2/1 264/1/1
f 265/14/1 266/15/1 267/5/1 268/2/1
f 269/26/1 270/27/1 271/23/1 272/22/1
f 273/27/1 274/13/1 275/1/1 276/23/1
f 277/19/1 278/20/1 279/14/1 280/13/1
f 281/20/1 282/21/1 283/15/1 284/14/1
f 285/33/1 286/34/1 287/27/1 288/26/1
f 289/34/1 290/19/1 291/13/1 292/27/1
f 293/22/1 294/23/1 295/24/1 296/25/1
f 297/23/1 298/1/1 299/4/1 300/24/1
f 301/1/1 302/2/1 303/3/1 304/4/1
f 305/2/1 306/5/1 307/6/1 308/3/1
f 309/26/1 310/27/1 311/23/1 312/22/1
f 313/27/1 314/13/1 315/1/1 316/23/1
f 317/13/1 318/14/1 319/2/1 320/1/1
f 321/14/1 322/15/1 323/5/1 324/2/1
f 325/1/1 326/2/1 327/3/1 328/4/1
f 329/2/1 330/5/1 331/6/1 332/3/1
f 333/33/1 334/34/1 335/27/1 336/26/1
f 337/34/1 338/19/1 339/13/1 340/27/1
f 341/19/1 342/20/1 343/14/1 344/13/1
f 345/20/1 346/21/1 347/15/1 348/14/1
f 349/13/1 350/14/1 351/2/1 352/1/1
f 353/14/1 354/15/1 355/5/1 356/2/1
f 357/19/1 358/20/1 359/14/1 360/13/1
f 361/20/1 362/21/1 363/15/1 364/14/1
f 365/1/1 366/2/1 367/3/1 368/4/1
f 369/2/1 370/5/1 371/6/1 372/3/1
f 373/22/1 374/23/1 375/24/1 376/25/1
f 377/23/1 378/1/1 379/4/1 380/24/1
f 381/22/1 382/23/1 383/24/1 384/25/1
f 385/23/1 386/1/1 387/4/1 388/24/1
f 389/13/1 390/14/1 391/2/1 392/1/1
f 393/14/1 394/15/1 395/5/1 396/2/1
f 397/26/1 398/27/1 399/23/1 400/22/1
f 401/27/1 402/13/1 403/1/1 404/23/1
f 405/26/1 406/27/1 407/23/1 408/22/1
f 409/27/1 410/13/1 411/1/1 412/23/1
f 413/19/1 414/20/1 415/14/1 416/13/1
f 417/20/1 418/21/1 419/15/1 420/14/1
f 421/33/1 422/34/1 423/27/1 424/26/1
f 425/34/1 426/19/1 427/13/1 428/27/1
f 429/33/1 430/34/1 431/27/1 432/26/1
f 433/34/1 434/19/1 435/13/1 436/27/1

