# Tiled2Unity generated file. Do not modify by hand.
# Wavefront file for 'userMap_mesh_0004.obj'

# Vertices (Count = 16)
v -672 -288 0
v -704 -288 0
v -704 -256 0
v -672 -256 0
v -704 -288 0
v -736 -288 0
v -736 -256 0
v -704 -256 0
v -672 -320 0
v -704 -320 0
v -704 -288 0
v -672 -288 0
v -704 -320 0
v -736 -320 0
v -736 -288 0
v -704 -288 0

# Texture cooridinates (Count = 9)
vt 0.75 0.6678201
vt 0.875 0.6678201
vt 0.875 0.7785467
vt 0.75 0.7785467
vt 1 0.6678201
vt 1 0.7785467
vt 0.75 0.5570934
vt 0.875 0.5570934
vt 1 0.5570934

# Normal
vn 0 0 -1

# Mesh description
g userMap_mesh_0004

# Faces
f 1/1/1 2/2/1 3/3/1 4/4/1
f 5/2/1 6/5/1 7/6/1 8/3/1
f 9/7/1 10/8/1 11/2/1 12/1/1
f 13/8/1 14/9/1 15/5/1 16/2/1

