# Tiled2Unity generated file. Do not modify by hand.
# Wavefront file for 'userMap_mesh_0008.obj'

# Vertices (Count = 40)
v -672 -384 0
v -704 -384 0
v -704 -352 0
v -672 -352 0
v -704 -384 0
v -736 -384 0
v -736 -352 0
v -704 -352 0
v -736 -384 0
v -768 -384 0
v -768 -352 0
v -736 -352 0
v -672 -416 0
v -704 -416 0
v -704 -384 0
v -672 -384 0
v -704 -416 0
v -736 -416 0
v -736 -384 0
v -704 -384 0
v -736 -416 0
v -768 -416 0
v -768 -384 0
v -736 -384 0
v -672 -448 0
v -704 -448 0
v -704 -416 0
v -672 -416 0
v -704 -448 0
v -736 -448 0
v -736 -416 0
v -704 -416 0
v -736 -448 0
v -768 -448 0
v -768 -416 0
v -736 -416 0
v -832 -512 0
v -864 -512 0
v -864 -480 0
v -832 -480 0

# Texture cooridinates (Count = 14)
vt 0.875 0.9090909
vt 1 0.9090909
vt 1 1
vt 0.875 1
vt 0.875 0.8181818
vt 1 0.8181818
vt 0.875 0.7272727
vt 1 0.7272727
vt 0.75 0.7272727
vt 0.75 0.8181818
vt 0.5 0.09090906
vt 0.625 0.09090906
vt 0.625 0.1818182
vt 0.5 0.1818182

# Normal
vn 0 0 -1

# Mesh description
g userMap_mesh_0008

# Faces
f 1/1/1 2/2/1 3/3/1 4/4/1
f 5/5/1 6/6/1 7/2/1 8/1/1
f 9/1/1 10/2/1 11/3/1 12/4/1
f 13/5/1 14/6/1 15/2/1 16/1/1
f 17/1/1 18/2/1 19/3/1 20/4/1
f 21/1/1 22/2/1 23/3/1 24/4/1
f 25/7/1 26/8/1 27/6/1 28/5/1
f 29/9/1 30/7/1 31/5/1 32/10/1
f 33/9/1 34/7/1 35/5/1 36/10/1
f 37/11/1 38/12/1 39/13/1 40/14/1

