# Tiled2Unity generated file. Do not modify by hand.
# Wavefront file for 'userMap_mesh_0004.obj'

# Vertices (Count = 32)
v -864 -256 0
v -896 -256 0
v -896 -224 0
v -864 -224 0
v -896 -256 0
v -928 -256 0
v -928 -224 0
v -896 -224 0
v -864 -288 0
v -896 -288 0
v -896 -256 0
v -864 -256 0
v -896 -288 0
v -928 -288 0
v -928 -256 0
v -896 -256 0
v -864 -320 0
v -896 -320 0
v -896 -288 0
v -864 -288 0
v -896 -320 0
v -928 -320 0
v -928 -288 0
v -896 -288 0
v -864 -352 0
v -896 -352 0
v -896 -320 0
v -864 -320 0
v -896 -352 0
v -928 -352 0
v -928 -320 0
v -896 -320 0

# Texture cooridinates (Count = 19)
vt 0.2509804 0.8947368
vt 0.3764706 0.8947368
vt 0.3764706 0.9473684
vt 0.2509804 0.9473684
vt 0.5019608 0.8947368
vt 0.5019608 0.9473684
vt 0.2509804 0.8421053
vt 0.3764706 0.8421053
vt 0.5019608 0.8421053
vt 0.1254902 0.6315789
vt 0.2509804 0.6315789
vt 0.2509804 0.6842105
vt 0.1254902 0.6842105
vt 0.1254902 0.5789474
vt 0.2509804 0.5789474
vt 0.627451 0.6842105
vt 0.7529412 0.6842105
vt 0.7529412 0.7368421
vt 0.627451 0.7368421

# Normal
vn 0 0 -1

# Mesh description
g userMap_mesh_0004

# Faces
f 1/1/1 2/2/1 3/3/1 4/4/1
f 5/2/1 6/5/1 7/6/1 8/3/1
f 9/7/1 10/8/1 11/2/1 12/1/1
f 13/8/1 14/9/1 15/5/1 16/2/1
f 17/10/1 18/11/1 19/12/1 20/13/1
f 21/14/1 22/15/1 23/11/1 24/10/1
f 25/16/1 26/17/1 27/18/1 28/19/1
f 29/10/1 30/11/1 31/12/1 32/13/1

