# Tiled2Unity generated file. Do not modify by hand.
# Wavefront file for 'userMap_mesh_0006.obj'

# Vertices (Count = 44)
v -672 -384 0
v -704 -384 0
v -704 -352 0
v -672 -352 0
v -704 -384 0
v -736 -384 0
v -736 -352 0
v -704 -352 0
v -736 -384 0
v -768 -384 0
v -768 -352 0
v -736 -352 0
v -672 -416 0
v -704 -416 0
v -704 -384 0
v -672 -384 0
v -704 -416 0
v -736 -416 0
v -736 -384 0
v -704 -384 0
v -736 -416 0
v -768 -416 0
v -768 -384 0
v -736 -384 0
v -672 -448 0
v -704 -448 0
v -704 -416 0
v -672 -416 0
v -704 -448 0
v -736 -448 0
v -736 -416 0
v -704 -416 0
v -736 -448 0
v -768 -448 0
v -768 -416 0
v -736 -416 0
v -640 -512 0
v -672 -512 0
v -672 -480 0
v -640 -480 0
v -672 -512 0
v -704 -512 0
v -704 -480 0
v -672 -480 0

# Texture cooridinates (Count = 22)
vt 0 0.9090909
vt 0.125 0.9090909
vt 0.125 1
vt 0 1
vt 0.25 0.9090909
vt 0.25 1
vt 0.375 0.9090909
vt 0.375 1
vt 0 0.8181818
vt 0.125 0.8181818
vt 0.25 0.8181818
vt 0.375 0.8181818
vt 0 0.7272727
vt 0.125 0.7272727
vt 0.25 0.7272727
vt 0.375 0.7272727
vt 0.25 0.09090906
vt 0.375 0.09090906
vt 0.375 0.1818182
vt 0.25 0.1818182
vt 0.5 0.09090906
vt 0.5 0.1818182

# Normal
vn 0 0 -1

# Mesh description
g userMap_mesh_0006

# Faces
f 1/1/1 2/2/1 3/3/1 4/4/1
f 5/2/1 6/5/1 7/6/1 8/3/1
f 9/5/1 10/7/1 11/8/1 12/6/1
f 13/9/1 14/10/1 15/2/1 16/1/1
f 17/10/1 18/11/1 19/5/1 20/2/1
f 21/11/1 22/12/1 23/7/1 24/5/1
f 25/13/1 26/14/1 27/10/1 28/9/1
f 29/14/1 30/15/1 31/11/1 32/10/1
f 33/15/1 34/16/1 35/12/1 36/11/1
f 37/17/1 38/18/1 39/19/1 40/20/1
f 41/21/1 42/18/1 43/19/1 44/22/1

