# Tiled2Unity generated file. Do not modify by hand.
# Wavefront file for 'userMap_mesh_0011.obj'

# Vertices (Count = 56)
v -1120 -352 0
v -1152 -352 0
v -1152 -320 0
v -1120 -320 0
v -576 -384 0
v -608 -384 0
v -608 -352 0
v -576 -352 0
v -608 -384 0
v -640 -384 0
v -640 -352 0
v -608 -352 0
v -640 -384 0
v -672 -384 0
v -672 -352 0
v -640 -352 0
v -1120 -384 0
v -1152 -384 0
v -1152 -352 0
v -1120 -352 0
v -576 -416 0
v -608 -416 0
v -608 -384 0
v -576 -384 0
v -608 -416 0
v -640 -416 0
v -640 -384 0
v -608 -384 0
v -640 -416 0
v -672 -416 0
v -672 -384 0
v -640 -384 0
v -576 -448 0
v -608 -448 0
v -608 -416 0
v -576 -416 0
v -608 -448 0
v -640 -448 0
v -640 -416 0
v -608 -416 0
v -640 -448 0
v -672 -448 0
v -672 -416 0
v -640 -416 0
v -544 -512 0
v -576 -512 0
v -576 -480 0
v -544 -480 0
v -576 -512 0
v -608 -512 0
v -608 -480 0
v -576 -480 0
v -736 -512 0
v -768 -512 0
v -768 -480 0
v -736 -480 0

# Texture cooridinates (Count = 27)
vt 0.375 0.9088319
vt 0.5 0.9088319
vt 0.5 1
vt 0.375 1
vt 0 0.9088319
vt 0.125 0.9088319
vt 0.125 1
vt 0 1
vt 0.25 0.9088319
vt 0.25 1
vt 0.375 0.8176638
vt 0.5 0.8176638
vt 0 0.8176638
vt 0.125 0.8176638
vt 0.25 0.8176638
vt 0 0.7264957
vt 0.125 0.7264957
vt 0.25 0.7264957
vt 0.375 0.7264957
vt 0.25 0.08831906
vt 0.375 0.08831906
vt 0.375 0.1794872
vt 0.25 0.1794872
vt 0.5 0.08831906
vt 0.5 0.1794872
vt 0.625 0.08831906
vt 0.625 0.1794872

# Normal
vn 0 0 -1

# Mesh description
g userMap_mesh_0011

# Faces
f 1/1/1 2/2/1 3/3/1 4/4/1
f 5/5/1 6/6/1 7/7/1 8/8/1
f 9/6/1 10/9/1 11/10/1 12/7/1
f 13/9/1 14/1/1 15/4/1 16/10/1
f 17/11/1 18/12/1 19/2/1 20/1/1
f 21/13/1 22/14/1 23/6/1 24/5/1
f 25/14/1 26/15/1 27/9/1 28/6/1
f 29/15/1 30/11/1 31/1/1 32/9/1
f 33/16/1 34/17/1 35/14/1 36/13/1
f 37/17/1 38/18/1 39/15/1 40/14/1
f 41/18/1 42/19/1 43/11/1 44/15/1
f 45/20/1 46/21/1 47/22/1 48/23/1
f 49/24/1 50/21/1 51/22/1 52/25/1
f 53/24/1 54/26/1 55/27/1 56/25/1

