# Tiled2Unity generated file. Do not modify by hand.
# Wavefront file for 'test_mesh_0001.obj'

# Vertices (Count = 884)
v 0 -32 0
v -48 -32 0
v -48 16 0
v 0 16 0
v -32 -32 0
v -80 -32 0
v -80 16 0
v -32 16 0
v -64 -32 0
v -112 -32 0
v -112 16 0
v -64 16 0
v -96 -32 0
v -144 -32 0
v -144 16 0
v -96 16 0
v -128 -32 0
v -176 -32 0
v -176 16 0
v -128 16 0
v -160 -32 0
v -208 -32 0
v -208 16 0
v -160 16 0
v -192 -32 0
v -240 -32 0
v -240 16 0
v -192 16 0
v -224 -32 0
v -272 -32 0
v -272 16 0
v -224 16 0
v -256 -32 0
v -304 -32 0
v -304 16 0
v -256 16 0
v -288 -32 0
v -336 -32 0
v -336 16 0
v -288 16 0
v -320 -32 0
v -368 -32 0
v -368 16 0
v -320 16 0
v -352 -32 0
v -400 -32 0
v -400 16 0
v -352 16 0
v -384 -32 0
v -432 -32 0
v -432 16 0
v -384 16 0
v -416 -32 0
v -464 -32 0
v -464 16 0
v -416 16 0
v -448 -32 0
v -496 -32 0
v -496 16 0
v -448 16 0
v -480 -32 0
v -528 -32 0
v -528 16 0
v -480 16 0
v -512 -32 0
v -560 -32 0
v -560 16 0
v -512 16 0
v 0 -64 0
v -48 -64 0
v -48 -16 0
v 0 -16 0
v -32 -64 0
v -80 -64 0
v -80 -16 0
v -32 -16 0
v -64 -64 0
v -112 -64 0
v -112 -16 0
v -64 -16 0
v -96 -64 0
v -144 -64 0
v -144 -16 0
v -96 -16 0
v -128 -64 0
v -176 -64 0
v -176 -16 0
v -128 -16 0
v -160 -64 0
v -208 -64 0
v -208 -16 0
v -160 -16 0
v -192 -64 0
v -240 -64 0
v -240 -16 0
v -192 -16 0
v -224 -64 0
v -272 -64 0
v -272 -16 0
v -224 -16 0
v -256 -64 0
v -304 -64 0
v -304 -16 0
v -256 -16 0
v -288 -64 0
v -336 -64 0
v -336 -16 0
v -288 -16 0
v -320 -64 0
v -368 -64 0
v -368 -16 0
v -320 -16 0
v -352 -64 0
v -400 -64 0
v -400 -16 0
v -352 -16 0
v -384 -64 0
v -432 -64 0
v -432 -16 0
v -384 -16 0
v -416 -64 0
v -464 -64 0
v -464 -16 0
v -416 -16 0
v -448 -64 0
v -496 -64 0
v -496 -16 0
v -448 -16 0
v -480 -64 0
v -528 -64 0
v -528 -16 0
v -480 -16 0
v -512 -64 0
v -560 -64 0
v -560 -16 0
v -512 -16 0
v 0 -96 0
v -48 -96 0
v -48 -48 0
v 0 -48 0
v -32 -96 0
v -80 -96 0
v -80 -48 0
v -32 -48 0
v -64 -96 0
v -112 -96 0
v -112 -48 0
v -64 -48 0
v -96 -96 0
v -144 -96 0
v -144 -48 0
v -96 -48 0
v -128 -96 0
v -176 -96 0
v -176 -48 0
v -128 -48 0
v -160 -96 0
v -208 -96 0
v -208 -48 0
v -160 -48 0
v -192 -96 0
v -240 -96 0
v -240 -48 0
v -192 -48 0
v -224 -96 0
v -272 -96 0
v -272 -48 0
v -224 -48 0
v -256 -96 0
v -304 -96 0
v -304 -48 0
v -256 -48 0
v -288 -96 0
v -336 -96 0
v -336 -48 0
v -288 -48 0
v -320 -96 0
v -368 -96 0
v -368 -48 0
v -320 -48 0
v -352 -96 0
v -400 -96 0
v -400 -48 0
v -352 -48 0
v -384 -96 0
v -432 -96 0
v -432 -48 0
v -384 -48 0
v -416 -96 0
v -464 -96 0
v -464 -48 0
v -416 -48 0
v -448 -96 0
v -496 -96 0
v -496 -48 0
v -448 -48 0
v -480 -96 0
v -528 -96 0
v -528 -48 0
v -480 -48 0
v -512 -96 0
v -560 -96 0
v -560 -48 0
v -512 -48 0
v 0 -128 0
v -48 -128 0
v -48 -80 0
v 0 -80 0
v -32 -128 0
v -80 -128 0
v -80 -80 0
v -32 -80 0
v -64 -128 0
v -112 -128 0
v -112 -80 0
v -64 -80 0
v -96 -128 0
v -144 -128 0
v -144 -80 0
v -96 -80 0
v -128 -128 0
v -176 -128 0
v -176 -80 0
v -128 -80 0
v -160 -128 0
v -208 -128 0
v -208 -80 0
v -160 -80 0
v -192 -128 0
v -240 -128 0
v -240 -80 0
v -192 -80 0
v -224 -128 0
v -272 -128 0
v -272 -80 0
v -224 -80 0
v -256 -128 0
v -304 -128 0
v -304 -80 0
v -256 -80 0
v -288 -128 0
v -336 -128 0
v -336 -80 0
v -288 -80 0
v -320 -128 0
v -368 -128 0
v -368 -80 0
v -320 -80 0
v -352 -128 0
v -400 -128 0
v -400 -80 0
v -352 -80 0
v -384 -128 0
v -432 -128 0
v -432 -80 0
v -384 -80 0
v -416 -128 0
v -464 -128 0
v -464 -80 0
v -416 -80 0
v -448 -128 0
v -496 -128 0
v -496 -80 0
v -448 -80 0
v -480 -128 0
v -528 -128 0
v -528 -80 0
v -480 -80 0
v -512 -128 0
v -560 -128 0
v -560 -80 0
v -512 -80 0
v 0 -160 0
v -48 -160 0
v -48 -112 0
v 0 -112 0
v -32 -160 0
v -80 -160 0
v -80 -112 0
v -32 -112 0
v -64 -160 0
v -112 -160 0
v -112 -112 0
v -64 -112 0
v -96 -160 0
v -144 -160 0
v -144 -112 0
v -96 -112 0
v -128 -160 0
v -176 -160 0
v -176 -112 0
v -128 -112 0
v -160 -160 0
v -208 -160 0
v -208 -112 0
v -160 -112 0
v -192 -160 0
v -240 -160 0
v -240 -112 0
v -192 -112 0
v -224 -160 0
v -272 -160 0
v -272 -112 0
v -224 -112 0
v -256 -160 0
v -304 -160 0
v -304 -112 0
v -256 -112 0
v -288 -160 0
v -336 -160 0
v -336 -112 0
v -288 -112 0
v -320 -160 0
v -368 -160 0
v -368 -112 0
v -320 -112 0
v -352 -160 0
v -400 -160 0
v -400 -112 0
v -352 -112 0
v -384 -160 0
v -432 -160 0
v -432 -112 0
v -384 -112 0
v -416 -160 0
v -464 -160 0
v -464 -112 0
v -416 -112 0
v -448 -160 0
v -496 -160 0
v -496 -112 0
v -448 -112 0
v -480 -160 0
v -528 -160 0
v -528 -112 0
v -480 -112 0
v -512 -160 0
v -560 -160 0
v -560 -112 0
v -512 -112 0
v 0 -192 0
v -48 -192 0
v -48 -144 0
v 0 -144 0
v -32 -192 0
v -80 -192 0
v -80 -144 0
v -32 -144 0
v -64 -192 0
v -112 -192 0
v -112 -144 0
v -64 -144 0
v -96 -192 0
v -144 -192 0
v -144 -144 0
v -96 -144 0
v -128 -192 0
v -176 -192 0
v -176 -144 0
v -128 -144 0
v -160 -192 0
v -208 -192 0
v -208 -144 0
v -160 -144 0
v -192 -192 0
v -240 -192 0
v -240 -144 0
v -192 -144 0
v -224 -192 0
v -272 -192 0
v -272 -144 0
v -224 -144 0
v -256 -192 0
v -304 -192 0
v -304 -144 0
v -256 -144 0
v -288 -192 0
v -336 -192 0
v -336 -144 0
v -288 -144 0
v -320 -192 0
v -368 -192 0
v -368 -144 0
v -320 -144 0
v -352 -192 0
v -400 -192 0
v -400 -144 0
v -352 -144 0
v -384 -192 0
v -432 -192 0
v -432 -144 0
v -384 -144 0
v -416 -192 0
v -464 -192 0
v -464 -144 0
v -416 -144 0
v -448 -192 0
v -496 -192 0
v -496 -144 0
v -448 -144 0
v -480 -192 0
v -528 -192 0
v -528 -144 0
v -480 -144 0
v -512 -192 0
v -560 -192 0
v -560 -144 0
v -512 -144 0
v 0 -224 0
v -48 -224 0
v -48 -176 0
v 0 -176 0
v -32 -224 0
v -80 -224 0
v -80 -176 0
v -32 -176 0
v -64 -224 0
v -112 -224 0
v -112 -176 0
v -64 -176 0
v -96 -224 0
v -144 -224 0
v -144 -176 0
v -96 -176 0
v -128 -224 0
v -176 -224 0
v -176 -176 0
v -128 -176 0
v -160 -224 0
v -208 -224 0
v -208 -176 0
v -160 -176 0
v -192 -224 0
v -240 -224 0
v -240 -176 0
v -192 -176 0
v -224 -224 0
v -272 -224 0
v -272 -176 0
v -224 -176 0
v -256 -224 0
v -304 -224 0
v -304 -176 0
v -256 -176 0
v -288 -224 0
v -336 -224 0
v -336 -176 0
v -288 -176 0
v -320 -224 0
v -368 -224 0
v -368 -176 0
v -320 -176 0
v -352 -224 0
v -400 -224 0
v -400 -176 0
v -352 -176 0
v -384 -224 0
v -432 -224 0
v -432 -176 0
v -384 -176 0
v -416 -224 0
v -464 -224 0
v -464 -176 0
v -416 -176 0
v -448 -224 0
v -496 -224 0
v -496 -176 0
v -448 -176 0
v -480 -224 0
v -528 -224 0
v -528 -176 0
v -480 -176 0
v -512 -224 0
v -560 -224 0
v -560 -176 0
v -512 -176 0
v 0 -256 0
v -48 -256 0
v -48 -208 0
v 0 -208 0
v -32 -256 0
v -80 -256 0
v -80 -208 0
v -32 -208 0
v -64 -256 0
v -112 -256 0
v -112 -208 0
v -64 -208 0
v -96 -256 0
v -144 -256 0
v -144 -208 0
v -96 -208 0
v -128 -256 0
v -176 -256 0
v -176 -208 0
v -128 -208 0
v -160 -256 0
v -208 -256 0
v -208 -208 0
v -160 -208 0
v -192 -256 0
v -240 -256 0
v -240 -208 0
v -192 -208 0
v -224 -256 0
v -272 -256 0
v -272 -208 0
v -224 -208 0
v -256 -256 0
v -304 -256 0
v -304 -208 0
v -256 -208 0
v -288 -256 0
v -336 -256 0
v -336 -208 0
v -288 -208 0
v -320 -256 0
v -368 -256 0
v -368 -208 0
v -320 -208 0
v -352 -256 0
v -400 -256 0
v -400 -208 0
v -352 -208 0
v -384 -256 0
v -432 -256 0
v -432 -208 0
v -384 -208 0
v -416 -256 0
v -464 -256 0
v -464 -208 0
v -416 -208 0
v -448 -256 0
v -496 -256 0
v -496 -208 0
v -448 -208 0
v -480 -256 0
v -528 -256 0
v -528 -208 0
v -480 -208 0
v -512 -256 0
v -560 -256 0
v -560 -208 0
v -512 -208 0
v 0 -288 0
v -48 -288 0
v -48 -240 0
v 0 -240 0
v -32 -288 0
v -80 -288 0
v -80 -240 0
v -32 -240 0
v -64 -288 0
v -112 -288 0
v -112 -240 0
v -64 -240 0
v -96 -288 0
v -144 -288 0
v -144 -240 0
v -96 -240 0
v -128 -288 0
v -176 -288 0
v -176 -240 0
v -128 -240 0
v -160 -288 0
v -208 -288 0
v -208 -240 0
v -160 -240 0
v -192 -288 0
v -240 -288 0
v -240 -240 0
v -192 -240 0
v -224 -288 0
v -272 -288 0
v -272 -240 0
v -224 -240 0
v -256 -288 0
v -304 -288 0
v -304 -240 0
v -256 -240 0
v -288 -288 0
v -336 -288 0
v -336 -240 0
v -288 -240 0
v -320 -288 0
v -368 -288 0
v -368 -240 0
v -320 -240 0
v -352 -288 0
v -400 -288 0
v -400 -240 0
v -352 -240 0
v -384 -288 0
v -432 -288 0
v -432 -240 0
v -384 -240 0
v -416 -288 0
v -464 -288 0
v -464 -240 0
v -416 -240 0
v -448 -288 0
v -496 -288 0
v -496 -240 0
v -448 -240 0
v -480 -288 0
v -528 -288 0
v -528 -240 0
v -480 -240 0
v -512 -288 0
v -560 -288 0
v -560 -240 0
v -512 -240 0
v 0 -320 0
v -48 -320 0
v -48 -272 0
v 0 -272 0
v -32 -320 0
v -80 -320 0
v -80 -272 0
v -32 -272 0
v -64 -320 0
v -112 -320 0
v -112 -272 0
v -64 -272 0
v -96 -320 0
v -144 -320 0
v -144 -272 0
v -96 -272 0
v -128 -320 0
v -176 -320 0
v -176 -272 0
v -128 -272 0
v -160 -320 0
v -208 -320 0
v -208 -272 0
v -160 -272 0
v -192 -320 0
v -240 -320 0
v -240 -272 0
v -192 -272 0
v -224 -320 0
v -272 -320 0
v -272 -272 0
v -224 -272 0
v -256 -320 0
v -304 -320 0
v -304 -272 0
v -256 -272 0
v -288 -320 0
v -336 -320 0
v -336 -272 0
v -288 -272 0
v -320 -320 0
v -368 -320 0
v -368 -272 0
v -320 -272 0
v -352 -320 0
v -400 -320 0
v -400 -272 0
v -352 -272 0
v -384 -320 0
v -432 -320 0
v -432 -272 0
v -384 -272 0
v -416 -320 0
v -464 -320 0
v -464 -272 0
v -416 -272 0
v -448 -320 0
v -496 -320 0
v -496 -272 0
v -448 -272 0
v -480 -320 0
v -528 -320 0
v -528 -272 0
v -480 -272 0
v -512 -320 0
v -560 -320 0
v -560 -272 0
v -512 -272 0
v 0 -352 0
v -48 -352 0
v -48 -304 0
v 0 -304 0
v -32 -352 0
v -80 -352 0
v -80 -304 0
v -32 -304 0
v -64 -352 0
v -112 -352 0
v -112 -304 0
v -64 -304 0
v -96 -352 0
v -144 -352 0
v -144 -304 0
v -96 -304 0
v -128 -352 0
v -176 -352 0
v -176 -304 0
v -128 -304 0
v -160 -352 0
v -208 -352 0
v -208 -304 0
v -160 -304 0
v -192 -352 0
v -240 -352 0
v -240 -304 0
v -192 -304 0
v -224 -352 0
v -272 -352 0
v -272 -304 0
v -224 -304 0
v -256 -352 0
v -304 -352 0
v -304 -304 0
v -256 -304 0
v -288 -352 0
v -336 -352 0
v -336 -304 0
v -288 -304 0
v -320 -352 0
v -368 -352 0
v -368 -304 0
v -320 -304 0
v -352 -352 0
v -400 -352 0
v -400 -304 0
v -352 -304 0
v -384 -352 0
v -432 -352 0
v -432 -304 0
v -384 -304 0
v -416 -352 0
v -464 -352 0
v -464 -304 0
v -416 -304 0
v -448 -352 0
v -496 -352 0
v -496 -304 0
v -448 -304 0
v -480 -352 0
v -528 -352 0
v -528 -304 0
v -480 -304 0
v -512 -352 0
v -560 -352 0
v -560 -304 0
v -512 -304 0
v 0 -384 0
v -48 -384 0
v -48 -336 0
v 0 -336 0
v -32 -384 0
v -80 -384 0
v -80 -336 0
v -32 -336 0
v -64 -384 0
v -112 -384 0
v -112 -336 0
v -64 -336 0
v -96 -384 0
v -144 -384 0
v -144 -336 0
v -96 -336 0
v -128 -384 0
v -176 -384 0
v -176 -336 0
v -128 -336 0
v -160 -384 0
v -208 -384 0
v -208 -336 0
v -160 -336 0
v -192 -384 0
v -240 -384 0
v -240 -336 0
v -192 -336 0
v -224 -384 0
v -272 -384 0
v -272 -336 0
v -224 -336 0
v -256 -384 0
v -304 -384 0
v -304 -336 0
v -256 -336 0
v -288 -384 0
v -336 -384 0
v -336 -336 0
v -288 -336 0
v -320 -384 0
v -368 -384 0
v -368 -336 0
v -320 -336 0
v -352 -384 0
v -400 -384 0
v -400 -336 0
v -352 -336 0
v -384 -384 0
v -432 -384 0
v -432 -336 0
v -384 -336 0
v -416 -384 0
v -464 -384 0
v -464 -336 0
v -416 -336 0
v -448 -384 0
v -496 -384 0
v -496 -336 0
v -448 -336 0
v -480 -384 0
v -528 -384 0
v -528 -336 0
v -480 -336 0
v -512 -384 0
v -560 -384 0
v -560 -336 0
v -512 -336 0
v 0 -416 0
v -48 -416 0
v -48 -368 0
v 0 -368 0
v -32 -416 0
v -80 -416 0
v -80 -368 0
v -32 -368 0
v -64 -416 0
v -112 -416 0
v -112 -368 0
v -64 -368 0
v -96 -416 0
v -144 -416 0
v -144 -368 0
v -96 -368 0
v -128 -416 0
v -176 -416 0
v -176 -368 0
v -128 -368 0
v -160 -416 0
v -208 -416 0
v -208 -368 0
v -160 -368 0
v -192 -416 0
v -240 -416 0
v -240 -368 0
v -192 -368 0
v -224 -416 0
v -272 -416 0
v -272 -368 0
v -224 -368 0
v -256 -416 0
v -304 -416 0
v -304 -368 0
v -256 -368 0
v -288 -416 0
v -336 -416 0
v -336 -368 0
v -288 -368 0
v -320 -416 0
v -368 -416 0
v -368 -368 0
v -320 -368 0
v -352 -416 0
v -400 -416 0
v -400 -368 0
v -352 -368 0
v -384 -416 0
v -432 -416 0
v -432 -368 0
v -384 -368 0
v -416 -416 0
v -464 -416 0
v -464 -368 0
v -416 -368 0
v -448 -416 0
v -496 -416 0
v -496 -368 0
v -448 -368 0
v -480 -416 0
v -528 -416 0
v -528 -368 0
v -480 -368 0
v -512 -416 0
v -560 -416 0
v -560 -368 0
v -512 -368 0

# Texture cooridinates (Count = 18)
vt 0 0.9166667
vt 0.0625 0.9166667
vt 0.0625 1
vt 0 1
vt 0.125 0.9166667
vt 0.125 1
vt 0.75 0.9166667
vt 0.8125 0.9166667
vt 0.8125 1
vt 0.75 1
vt 0 0.6666666
vt 0.0625 0.6666666
vt 0.0625 0.75
vt 0 0.75
vt 0.125 0.6666666
vt 0.125 0.75
vt 0.0625 0.8333333
vt 0.125 0.8333333

# Normal
vn 0 0 -1

# Mesh description
g test_mesh_0001

# Faces
f 1/1/1 2/2/1 3/3/1 4/4/1
f 5/1/1 6/2/1 7/3/1 8/4/1
f 9/1/1 10/2/1 11/3/1 12/4/1
f 13/1/1 14/2/1 15/3/1 16/4/1
f 17/2/1 18/5/1 19/6/1 20/3/1
f 21/2/1 22/5/1 23/6/1 24/3/1
f 25/7/1 26/8/1 27/9/1 28/10/1
f 29/11/1 30/12/1 31/13/1 32/14/1
f 33/11/1 34/12/1 35/13/1 36/14/1
f 37/11/1 38/12/1 39/13/1 40/14/1
f 41/7/1 42/8/1 43/9/1 44/10/1
f 45/2/1 46/5/1 47/6/1 48/3/1
f 49/1/1 50/2/1 51/3/1 52/4/1
f 53/1/1 54/2/1 55/3/1 56/4/1
f 57/1/1 58/2/1 59/3/1 60/4/1
f 61/1/1 62/2/1 63/3/1 64/4/1
f 65/1/1 66/2/1 67/3/1 68/4/1
f 69/1/1 70/2/1 71/3/1 72/4/1
f 73/1/1 74/2/1 75/3/1 76/4/1
f 77/1/1 78/2/1 79/3/1 80/4/1
f 81/1/1 82/2/1 83/3/1 84/4/1
f 85/2/1 86/5/1 87/6/1 88/3/1
f 89/2/1 90/5/1 91/6/1 92/3/1
f 93/7/1 94/8/1 95/9/1 96/10/1
f 97/11/1 98/12/1 99/13/1 100/14/1
f 101/11/1 102/12/1 103/13/1 104/14/1
f 105/11/1 106/12/1 107/13/1 108/14/1
f 109/7/1 110/8/1 111/9/1 112/10/1
f 113/2/1 114/5/1 115/6/1 116/3/1
f 117/2/1 118/5/1 119/6/1 120/3/1
f 121/2/1 122/5/1 123/6/1 124/3/1
f 125/1/1 126/2/1 127/3/1 128/4/1
f 129/1/1 130/2/1 131/3/1 132/4/1
f 133/1/1 134/2/1 135/3/1 136/4/1
f 137/1/1 138/2/1 139/3/1 140/4/1
f 141/1/1 142/2/1 143/3/1 144/4/1
f 145/1/1 146/2/1 147/3/1 148/4/1
f 149/2/1 150/5/1 151/6/1 152/3/1
f 153/2/1 154/5/1 155/6/1 156/3/1
f 157/2/1 158/5/1 159/6/1 160/3/1
f 161/7/1 162/8/1 163/9/1 164/10/1
f 165/11/1 166/12/1 167/13/1 168/14/1
f 169/11/1 170/12/1 171/13/1 172/14/1
f 173/11/1 174/12/1 175/13/1 176/14/1
f 177/7/1 178/8/1 179/9/1 180/10/1
f 181/2/1 182/5/1 183/6/1 184/3/1
f 185/2/1 186/5/1 187/6/1 188/3/1
f 189/2/1 190/5/1 191/6/1 192/3/1
f 193/1/1 194/2/1 195/3/1 196/4/1
f 197/1/1 198/2/1 199/3/1 200/4/1
f 201/1/1 202/2/1 203/3/1 204/4/1
f 205/2/1 206/5/1 207/6/1 208/3/1
f 209/2/1 210/5/1 211/6/1 212/3/1
f 213/2/1 214/5/1 215/6/1 216/3/1
f 217/2/1 218/5/1 219/6/1 220/3/1
f 221/2/1 222/5/1 223/6/1 224/3/1
f 225/2/1 226/5/1 227/6/1 228/3/1
f 229/7/1 230/8/1 231/9/1 232/10/1
f 233/11/1 234/12/1 235/13/1 236/14/1
f 237/11/1 238/12/1 239/13/1 240/14/1
f 241/11/1 242/12/1 243/13/1 244/14/1
f 245/7/1 246/8/1 247/9/1 248/10/1
f 249/2/1 250/5/1 251/6/1 252/3/1
f 253/2/1 254/5/1 255/6/1 256/3/1
f 257/1/1 258/2/1 259/3/1 260/4/1
f 261/1/1 262/2/1 263/3/1 264/4/1
f 265/1/1 266/2/1 267/3/1 268/4/1
f 269/1/1 270/2/1 271/3/1 272/4/1
f 273/1/1 274/2/1 275/3/1 276/4/1
f 277/1/1 278/2/1 279/3/1 280/4/1
f 281/1/1 282/2/1 283/3/1 284/4/1
f 285/1/1 286/2/1 287/3/1 288/4/1
f 289/2/1 290/5/1 291/6/1 292/3/1
f 293/2/1 294/5/1 295/6/1 296/3/1
f 297/7/1 298/8/1 299/9/1 300/10/1
f 301/11/1 302/12/1 303/13/1 304/14/1
f 305/11/1 306/12/1 307/13/1 308/14/1
f 309/11/1 310/12/1 311/13/1 312/14/1
f 313/7/1 314/8/1 315/9/1 316/10/1
f 317/2/1 318/5/1 319/6/1 320/3/1
f 321/2/1 322/5/1 323/6/1 324/3/1
f 325/1/1 326/2/1 327/3/1 328/4/1
f 329/1/1 330/2/1 331/3/1 332/4/1
f 333/1/1 334/2/1 335/3/1 336/4/1
f 337/1/1 338/2/1 339/3/1 340/4/1
f 341/1/1 342/2/1 343/3/1 344/4/1
f 345/1/1 346/2/1 347/3/1 348/4/1
f 349/1/1 350/2/1 351/3/1 352/4/1
f 353/1/1 354/2/1 355/3/1 356/4/1
f 357/2/1 358/5/1 359/6/1 360/3/1
f 361/2/1 362/5/1 363/6/1 364/3/1
f 365/7/1 366/8/1 367/9/1 368/10/1
f 369/12/1 370/15/1 371/16/1 372/13/1
f 373/11/1 374/12/1 375/13/1 376/14/1
f 377/11/1 378/12/1 379/13/1 380/14/1
f 381/7/1 382/8/1 383/9/1 384/10/1
f 385/2/1 386/5/1 387/6/1 388/3/1
f 389/1/1 390/2/1 391/3/1 392/4/1
f 393/1/1 394/2/1 395/3/1 396/4/1
f 397/1/1 398/2/1 399/3/1 400/4/1
f 401/1/1 402/2/1 403/3/1 404/4/1
f 405/1/1 406/2/1 407/3/1 408/4/1
f 409/1/1 410/2/1 411/3/1 412/4/1
f 413/1/1 414/2/1 415/3/1 416/4/1
f 417/1/1 418/2/1 419/3/1 420/4/1
f 421/1/1 422/2/1 423/3/1 424/4/1
f 425/2/1 426/5/1 427/6/1 428/3/1
f 429/1/1 430/2/1 431/3/1 432/4/1
f 433/1/1 434/2/1 435/3/1 436/4/1
f 437/1/1 438/2/1 439/3/1 440/4/1
f 441/1/1 442/2/1 443/3/1 444/4/1
f 445/2/1 446/5/1 447/6/1 448/3/1
f 449/2/1 450/5/1 451/6/1 452/3/1
f 453/2/1 454/5/1 455/6/1 456/3/1
f 457/2/1 458/5/1 459/6/1 460/3/1
f 461/1/1 462/2/1 463/3/1 464/4/1
f 465/1/1 466/2/1 467/3/1 468/4/1
f 469/1/1 470/2/1 471/3/1 472/4/1
f 473/1/1 474/2/1 475/3/1 476/4/1
f 477/1/1 478/2/1 479/3/1 480/4/1
f 481/1/1 482/2/1 483/3/1 484/4/1
f 485/1/1 486/2/1 487/3/1 488/4/1
f 489/1/1 490/2/1 491/3/1 492/4/1
f 493/2/1 494/5/1 495/6/1 496/3/1
f 497/2/1 498/5/1 499/6/1 500/3/1
f 501/2/1 502/5/1 503/6/1 504/3/1
f 505/17/1 506/18/1 507/5/1 508/2/1
f 509/17/1 510/18/1 511/5/1 512/2/1
f 513/17/1 514/18/1 515/5/1 516/2/1
f 517/17/1 518/18/1 519/5/1 520/2/1
f 521/2/1 522/5/1 523/6/1 524/3/1
f 525/2/1 526/5/1 527/6/1 528/3/1
f 529/2/1 530/5/1 531/6/1 532/3/1
f 533/1/1 534/2/1 535/3/1 536/4/1
f 537/1/1 538/2/1 539/3/1 540/4/1
f 541/1/1 542/2/1 543/3/1 544/4/1
f 545/1/1 546/2/1 547/3/1 548/4/1
f 549/1/1 550/2/1 551/3/1 552/4/1
f 553/1/1 554/2/1 555/3/1 556/4/1
f 557/1/1 558/2/1 559/3/1 560/4/1
f 561/2/1 562/5/1 563/6/1 564/3/1
f 565/2/1 566/5/1 567/6/1 568/3/1
f 569/2/1 570/5/1 571/6/1 572/3/1
f 573/1/1 574/2/1 575/3/1 576/4/1
f 577/1/1 578/2/1 579/3/1 580/4/1
f 581/17/1 582/18/1 583/5/1 584/2/1
f 585/1/1 586/2/1 587/3/1 588/4/1
f 589/1/1 590/2/1 591/3/1 592/4/1
f 593/2/1 594/5/1 595/6/1 596/3/1
f 597/1/1 598/2/1 599/3/1 600/4/1
f 601/1/1 602/2/1 603/3/1 604/4/1
f 605/1/1 606/2/1 607/3/1 608/4/1
f 609/1/1 610/2/1 611/3/1 612/4/1
f 613/1/1 614/2/1 615/3/1 616/4/1
f 617/1/1 618/2/1 619/3/1 620/4/1
f 621/1/1 622/2/1 623/3/1 624/4/1
f 625/1/1 626/2/1 627/3/1 628/4/1
f 629/2/1 630/5/1 631/6/1 632/3/1
f 633/2/1 634/5/1 635/6/1 636/3/1
f 637/2/1 638/5/1 639/6/1 640/3/1
f 641/2/1 642/5/1 643/6/1 644/3/1
f 645/2/1 646/5/1 647/6/1 648/3/1
f 649/2/1 650/5/1 651/6/1 652/3/1
f 653/2/1 654/5/1 655/6/1 656/3/1
f 657/2/1 658/5/1 659/6/1 660/3/1
f 661/1/1 662/2/1 663/3/1 664/4/1
f 665/1/1 666/2/1 667/3/1 668/4/1
f 669/1/1 670/2/1 671/3/1 672/4/1
f 673/1/1 674/2/1 675/3/1 676/4/1
f 677/1/1 678/2/1 679/3/1 680/4/1
f 681/1/1 682/2/1 683/3/1 684/4/1
f 685/1/1 686/2/1 687/3/1 688/4/1
f 689/1/1 690/2/1 691/3/1 692/4/1
f 693/1/1 694/2/1 695/3/1 696/4/1
f 697/2/1 698/5/1 699/6/1 700/3/1
f 701/2/1 702/5/1 703/6/1 704/3/1
f 705/2/1 706/5/1 707/6/1 708/3/1
f 709/2/1 710/5/1 711/6/1 712/3/1
f 713/2/1 714/5/1 715/6/1 716/3/1
f 717/2/1 718/5/1 719/6/1 720/3/1
f 721/2/1 722/5/1 723/6/1 724/3/1
f 725/2/1 726/5/1 727/6/1 728/3/1
f 729/1/1 730/2/1 731/3/1 732/4/1
f 733/1/1 734/2/1 735/3/1 736/4/1
f 737/1/1 738/2/1 739/3/1 740/4/1
f 741/1/1 742/2/1 743/3/1 744/4/1
f 745/1/1 746/2/1 747/3/1 748/4/1
f 749/1/1 750/2/1 751/3/1 752/4/1
f 753/1/1 754/2/1 755/3/1 756/4/1
f 757/1/1 758/2/1 759/3/1 760/4/1
f 761/1/1 762/2/1 763/3/1 764/4/1
f 765/2/1 766/5/1 767/6/1 768/3/1
f 769/2/1 770/5/1 771/6/1 772/3/1
f 773/2/1 774/5/1 775/6/1 776/3/1
f 777/2/1 778/5/1 779/6/1 780/3/1
f 781/2/1 782/5/1 783/6/1 784/3/1
f 785/2/1 786/5/1 787/6/1 788/3/1
f 789/2/1 790/5/1 791/6/1 792/3/1
f 793/2/1 794/5/1 795/6/1 796/3/1
f 797/1/1 798/2/1 799/3/1 800/4/1
f 801/1/1 802/2/1 803/3/1 804/4/1
f 805/1/1 806/2/1 807/3/1 808/4/1
f 809/1/1 810/2/1 811/3/1 812/4/1
f 813/1/1 814/2/1 815/3/1 816/4/1
f 817/1/1 818/2/1 819/3/1 820/4/1
f 821/1/1 822/2/1 823/3/1 824/4/1
f 825/1/1 826/2/1 827/3/1 828/4/1
f 829/1/1 830/2/1 831/3/1 832/4/1
f 833/2/1 834/5/1 835/6/1 836/3/1
f 837/2/1 838/5/1 839/6/1 840/3/1
f 841/2/1 842/5/1 843/6/1 844/3/1
f 845/2/1 846/5/1 847/6/1 848/3/1
f 849/2/1 850/5/1 851/6/1 852/3/1
f 853/2/1 854/5/1 855/6/1 856/3/1
f 857/2/1 858/5/1 859/6/1 860/3/1
f 861/2/1 862/5/1 863/6/1 864/3/1
f 865/1/1 866/2/1 867/3/1 868/4/1
f 869/1/1 870/2/1 871/3/1 872/4/1
f 873/1/1 874/2/1 875/3/1 876/4/1
f 877/1/1 878/2/1 879/3/1 880/4/1
f 881/1/1 882/2/1 883/3/1 884/4/1

