# Tiled2Unity generated file. Do not modify by hand.
# Wavefront file for 'test_mesh_0003.obj'

# Vertices (Count = 32)
v -480 -192 0
v -528 -192 0
v -528 -144 0
v -480 -144 0
v -512 -192 0
v -560 -192 0
v -560 -144 0
v -512 -144 0
v -480 -224 0
v -528 -224 0
v -528 -176 0
v -480 -176 0
v -512 -224 0
v -560 -224 0
v -560 -176 0
v -512 -176 0
v -32 -416 0
v -80 -416 0
v -80 -368 0
v -32 -368 0
v -64 -416 0
v -112 -416 0
v -112 -368 0
v -64 -368 0
v -320 -416 0
v -368 -416 0
v -368 -368 0
v -320 -368 0
v -352 -416 0
v -400 -416 0
v -400 -368 0
v -352 -368 0

# Texture cooridinates (Count = 9)
vt 0.375 0.3125
vt 0.4375 0.3125
vt 0.4375 0.375
vt 0.375 0.375
vt 0.5 0.3125
vt 0.5 0.375
vt 0.375 0.25
vt 0.4375 0.25
vt 0.5 0.25

# Normal
vn 0 0 -1

# Mesh description
g test_mesh_0003

# Faces
f 1/1/1 2/2/1 3/3/1 4/4/1
f 5/2/1 6/5/1 7/6/1 8/3/1
f 9/7/1 10/8/1 11/2/1 12/1/1
f 13/8/1 14/9/1 15/5/1 16/2/1
f 17/1/1 18/2/1 19/3/1 20/4/1
f 21/2/1 22/5/1 23/6/1 24/3/1
f 25/1/1 26/2/1 27/3/1 28/4/1
f 29/2/1 30/5/1 31/6/1 32/3/1

